<svg xmlns="http://www.w3.org/2000/svg" xmlns:xlink="http://www.w3.org/1999/xlink" viewBox="0 0 150 150"><defs><style>.cls-1,.cls-11,.cls-17,.cls-8{fill:none;}.cls-2{fill:#bd0d50;}.cls-3{fill:#5d6978;}.cls-4{fill:#445973;}.cls-5{fill:#535e6b;}.cls-6{fill:#adb8c7;}.cls-7{fill:#858d99;}.cls-11,.cls-17,.cls-8{stroke:#445973;}.cls-11,.cls-8{stroke-miterlimit:10;}.cls-8{stroke-width:1.01px;}.cls-9{fill:#91a3ba;}.cls-10{fill:#f0d262;}.cls-11,.cls-17{stroke-width:1.02px;}.cls-12{fill:#171e26;}.cls-13{fill:#1d78d1;}.cls-14{fill:#3093d0;}.cls-15{fill:#8191a6;}.cls-16{fill:#fff;}.cls-17{stroke-linejoin:round;}.cls-18{fill:#909dad;}.cls-19{fill:#a5b4c7;}.cls-20{fill:#bac6d6;}.cls-21{clip-path:url(#clip-path);}.cls-22{fill:#485e78;}.cls-23{fill:#6f7d8f;}.cls-24{fill:#97aac2;}.cls-25{fill:#79889c;}</style><clipPath id="clip-path"><path class="cls-1" d="M24.64,103.1c-2,0-3.93-1.42-5.09-3.7a5.57,5.57,0,0,1-1.21-2.55,5.88,5.88,0,0,1,.2-2.84c.3-2.94,1.93-5.11,4.18-5.53l1.05-.27a3,3,0,0,1,.53-.14,4.09,4.09,0,0,1,.6-.07h.16a3.24,3.24,0,0,1,.44,0,3.91,3.91,0,0,1,.58.1,5.13,5.13,0,0,1,1.11.41,4.74,4.74,0,0,1,.52.31,6.52,6.52,0,0,1,.94.76l0,0a3.06,3.06,0,0,1,2.12-1.12H31c2,0,3.68,2.14,3.86,5a6.63,6.63,0,0,1-.73,3.58A3.35,3.35,0,0,1,31.46,99H31.3a3,3,0,0,1-.52,0v0c-.06.16-.12.32-.19.48s-.19.41-.27.57-.22.37-.32.53-.24.33-.36.48a4.61,4.61,0,0,1-2.37,1.53h0l-1.64.43v0l-.21,0A4.9,4.9,0,0,1,24.64,103.1Z"/></clipPath></defs><g id="Layer_2" data-name="Layer 2"><g id="Layer_1-2" data-name="Layer 1"><rect class="cls-2" width="150" height="150" rx="75"/><path class="cls-3" d="M109.41,125.24c4-2.57,6.06-5,6.33-7.55.24-2.21-.88-4.53-3.51-7.27-2,2.77-4.86,6.39-8.54,10.77-3.32,4-9.33,6-17.87,6-22.28,0-55.18-13.67-55.5-13.8L29,112.77,91.18,96a59.36,59.36,0,0,1-2-13.49c0-3.42,0-13.82,8.21-13.83s8.35,12.48,8.36,13v1.49l2,.61c2.2.6,14.23,11.29,14.54,24.51S110,126.1,109.85,126.15l-4,1.39Z"/><path class="cls-4" d="M97.36,69.18c7.61,0,7.84,12.52,7.84,12.52v1.85l2.35.72c2,.54,13.87,11,14.17,24s-12,17.36-12,17.36c8.61-5.55,8.07-10.45,2.48-16-1.73,2.46-4.5,6-8.87,11.24-3.53,4.2-9.91,5.77-17.48,5.77-22.44,0-55.31-13.77-55.31-13.77L91.8,96.36s-2.18-7.76-2.16-13.84c0-3.37.09-13.33,7.72-13.34h0m0-1h0c-5.76,0-8.7,4.83-8.73,14.34a58.54,58.54,0,0,0,1.94,13.14L30.25,111.89l-2.86.77,2.73,1.14c.33.14,33.32,13.85,55.7,13.85,8.7,0,14.84-2.06,18.26-6.13s6.23-7.6,8.2-10.31c2.22,2.43,3.17,4.49,3,6.43-.25,2.34-2.25,4.69-6.1,7.18L102,129.41l8-2.79c.13,0,13-4.69,12.71-18.33s-12.57-24.35-14.92-25l-1.59-.49V81.7c0-.57-.35-13.53-8.86-13.53Z"/><path class="cls-5" d="M116.82,122.61c.05,0,.09-.11.14-.17l.45-.58.18-.23.48-.68.09-.15c.19-.27.37-.57.55-.86l.14-.24.4-.71a21.36,21.36,0,0,0,2.47-10.68c-.3-13-12.19-23.5-14.17-24l-2.89-.88.54-1.69S105,69.17,97.36,69.18s-7.71,10-7.72,13.34c0,6.08,2.16,13.84,2.16,13.84h0s16.8,7.58,23.09,16.44l.06.08c.1.15.21.3.31.46l.08.13c.1.15.19.29.27.44l.09.15c.09.14.17.29.25.43l.06.13a10.62,10.62,0,0,1,.64,1.43.87.87,0,0,1,.07.17l.12.37c0,.08,0,.16.07.24l.09.35.06.27.06.33a2.89,2.89,0,0,1,0,.29c0,.1,0,.21,0,.32s0,.21,0,.31,0,.2,0,.3,0,.31,0,.47l0,.33c0,.13,0,.26-.05.39a2.56,2.56,0,0,1,0,.27c0,.11,0,.23-.08.35s0,.18-.07.27l-.12.34-.09.27a3.73,3.73,0,0,1-.16.35c0,.09-.07.17-.11.26l-.21.39-.12.21q-.18.3-.39.6l0,.07c-.13.17-.26.35-.41.52l-.17.21c-.12.13-.23.26-.36.39l-.22.23-.38.36-.25.24-.43.36c-.09.07-.17.15-.27.22l-.51.39-.25.19-.84.57,0,0,0,0,.12-.07,0,0L112,127l0,0a3.16,3.16,0,0,0,.27-.18l.1-.07.28-.2.1-.07.42-.32.08,0,.39-.32.15-.13c.13-.1.26-.22.39-.34a.69.69,0,0,0,.13-.11c.18-.16.36-.32.54-.5l.11-.1c.15-.15.31-.3.46-.46s.11-.11.17-.17.31-.33.47-.5l.12-.14C116.44,123.07,116.63,122.85,116.82,122.61Z"/><line class="cls-6" x1="105.2" y1="81.7" x2="100.47" y2="83.05"/><path class="cls-7" d="M105.35,81.66l-4.88,1.39s.83-16-5.49-14C95,69.08,104.88,65.21,105.35,81.66Z"/><path class="cls-6" d="M100.47,83.05S112.79,88.2,116,94.79l4.81-1.88A18.13,18.13,0,0,0,115.7,87a29.89,29.89,0,0,0-5.54-3.26h0a39.68,39.68,0,0,0-5-2"/><path class="cls-8" d="M116,94.79c-3.25-6.59-15.57-11.74-15.57-11.74S101.65,67.9,95.27,69"/><path class="cls-8" d="M121.31,92.73c-.33-.49-.67-1-1-1.41a21.73,21.73,0,0,0-4.2-4,30.2,30.2,0,0,0-5.92-3.55h0a30.54,30.54,0,0,0-4.48-1.83s.31-16.39-11-12.78"/><path class="cls-9" d="M80.06,95.53c21.3-4.5,38.27-13.61,43.29-22.37a54.6,54.6,0,0,0-.45-15c-.12-.73-4.32-1.16-4.47-1.89-2-9.24-4.3-12.11-10-18.72-.63-.73,1-7.06.3-7.75C97.14,17.62,80.16,11.54,63.08,15.15,36.23,20.82,19.3,48.29,25.26,76.51a54.5,54.5,0,0,0,6.16,16.07C39.56,98.56,58.77,100,80.06,95.53Z"/><path class="cls-10" d="M92.46,90.74c0,.51,0,1-.08,1.54a97.29,97.29,0,0,0,16.07-6.68,84.71,84.71,0,0,0-5.9-32.11,88.23,88.23,0,0,0-10.92-20C77.4,14.43,65.62,14.78,62.4,15.31a47.54,47.54,0,0,0-17.58,8C56.73,16.55,69,28.56,75.68,37.36a84.42,84.42,0,0,1,16.77,47.8C92.52,87,92.52,88.88,92.46,90.74Zm-15-51c.53.77.83,1.23.83,1.23S78,40.52,77.42,39.75Z"/><path class="cls-11" d="M110.57,31.78C98.94,18.3,81.06,11.35,63.08,15.15,36.23,20.82,19.3,48.29,25.26,76.51a54.5,54.5,0,0,0,6.16,16.07c8.14,6,27.35,7.45,48.64,3s38.27-13.61,43.29-22.37a54.4,54.4,0,0,0-.28-13.94c-.16-1.08-2.29-1.4-2.89-2.33-5.45-8.45-5-15.91-10.56-22.49-.11-.13,1.06-2.49.95-2.62"/><path class="cls-12" d="M111.85,35.76A60.7,60.7,0,0,1,121,56.16s4.44,10.73-6.08,13.09S99,70,99,70,87.41,93,67,85.06,49.7,58.61,49.7,58.61,58.55,40.89,70.49,41,90.71,44.17,95,37.44,108.57,29.35,111.85,35.76Z"/><circle class="cls-13" cx="74.86" cy="67.32" r="16.07"/><circle class="cls-14" cx="76.64" cy="65.08" r="13.21"/><ellipse class="cls-13" cx="109.16" cy="55.06" rx="9.75" ry="15.11" transform="translate(-11.91 38.05) rotate(-18.77)"/><ellipse class="cls-14" cx="110.09" cy="52.36" rx="7.57" ry="11.72" transform="translate(-10.99 38.21) rotate(-18.77)"/><ellipse cx="112.81" cy="50.44" rx="3.88" ry="6.01" transform="translate(-10.71 46.76) rotate(-22.38)"/><path class="cls-9" d="M95.69,71.34l1-1.26a8.07,8.07,0,0,1,7.38-2.86,28.17,28.17,0,0,1,3.05.71c3.32.89,7.45,2,11.21.19,6.16-3,3.09-11.89,3.07-12h0c0,.09.73,7.94-5.43,10.9-3.76,1.8-7.89.7-11.21-.19a28.17,28.17,0,0,0-3.05-.71A8.05,8.05,0,0,0,94.33,69l-1,1.26c-4.22,5.36-12.08,15.33-26.07,12.2a26.43,26.43,0,0,1-3.88-1.18,24.66,24.66,0,0,0,6.24,2.27C83.61,86.68,91.47,76.7,95.69,71.34Z"/><path class="cls-15" d="M46.47,57.78l.09-.7.39-.6C51.29,49.85,58.27,43,64.32,39.53a20.26,20.26,0,0,1,16.41-1.62c.64.21,1.32.46,2,.71,2.47.9,5.33,1.65,7.17,1.13a7.15,7.15,0,0,0,4.79-4.52,9.9,9.9,0,0,1,7.34-6.8c3.37-.72,5.45,1,7.11,1.52l.68.06c-1.28-2.43-5.49-3.66-10.15-2.67a9.93,9.93,0,0,0-7.34,6.81,7.18,7.18,0,0,1-4.79,4.52c-1.84.51-4.7-.23-7.17-1.13-.7-.25-1.38-.5-2-.71A20.24,20.24,0,0,0,62,38.45c-6.05,3.5-13,10.32-17.37,16.95L44.2,56l-.09.71c-1,8.21,1.43,24,16.77,30.19C47.66,80.13,45.5,65.55,46.47,57.78Z"/><path class="cls-6" d="M74.83,90.28a29.73,29.73,0,0,1-6.55-.75C48.43,85.09,45.34,66.82,46.47,57.78l.09-.7.39-.6C51.29,49.85,58.27,43,64.32,39.53a20.26,20.26,0,0,1,16.41-1.62c.64.21,1.32.46,2,.71,2.47.9,5.33,1.65,7.17,1.13a7.15,7.15,0,0,0,4.79-4.52,10.08,10.08,0,0,1,7.34-6.8c9.52-2.28,9.83,6.61,10,7l-.1-.24c-.3-.46,0-4.34-6.9-2.79a6.94,6.94,0,0,0-4.79,4.43c-.84,3-3.06,6.52-8.12,8.66-4,1.68-8.15.17-11.51-1-.63-.23-1.24-.46-1.82-.64A14.13,14.13,0,0,0,67.4,44.83c-5,2.92-11.07,8.76-14.9,14.39-.26,3.64-.45,20.4,17.12,24.33,14,3.13,21.85-6.85,26.07-12.21l1-1.26a8.07,8.07,0,0,1,7.38-2.86,28.17,28.17,0,0,1,3.05.71c3.32.89,7.45,2,11.21.19,6.16-3,3.09-11.89,3.07-12h0c3.23.62,7.09,12-1.34,16.09a20.31,20.31,0,0,1-14.53,1.62,22.88,22.88,0,0,0-2.36-.56,1.86,1.86,0,0,0-1.73.67l-.93,1.17C96.74,79.91,88.58,90.28,74.83,90.28Z"/><circle cx="80.45" cy="64.28" r="7"/><circle class="cls-16" cx="81.16" cy="56.89" r="3.73"/><circle class="cls-16" cx="111.6" cy="45.01" r="2.1"/><circle class="cls-16" cx="79.1" cy="70.03" r="2.47"/><circle class="cls-16" cx="114.18" cy="56.26" r="1.5"/><path class="cls-17" d="M121.4,56.14c0,.09.73,7.94-5.43,10.9-3.76,1.8-7.89.7-11.21-.19a28.17,28.17,0,0,0-3.05-.71A8.05,8.05,0,0,0,94.33,69l-1,1.26c-4.22,5.36-12.08,15.33-26.07,12.2a26.43,26.43,0,0,1-3.88-1.18c-11.26-6-11.1-18.92-10.88-22.06,3.83-5.63,9.87-11.47,14.9-14.39a14.13,14.13,0,0,1,11.44-1.08c.58.18,1.19.41,1.82.64,3.36,1.22,7.53,2.73,11.51,1,5.06-2.14,7.28-5.68,8.12-8.66.75-2.68,3.47-4.07,4.79-4.43,5.37-1.43,7,3,7,3-.15-.24.68-10.46-12.39-8a9.73,9.73,0,0,0-7.34,6.81,7.18,7.18,0,0,1-4.79,4.52c-1.84.51-4.7-.23-7.17-1.13-.7-.25-1.38-.5-2-.71A20.24,20.24,0,0,0,62,38.45c-6.05,3.5-13,10.32-17.37,16.95L44.2,56l-.09.71a31.69,31.69,0,0,0,1.35,13.43,26.62,26.62,0,0,0,9.76,13.69,36.8,36.8,0,0,0,13.06,5.71,29.73,29.73,0,0,0,6.55.75c13.75,0,21.91-10.37,25.68-15.15l.93-1.17a1.86,1.86,0,0,1,1.73-.67,22.88,22.88,0,0,1,2.36.56,20.07,20.07,0,0,0,15-1.87C128.24,67.74,124.55,55.66,121.4,56.14Z"/><path class="cls-18" d="M85.59,7.15l-1.45,1.1L85,16.76l1.15,1.51s10.19-3.1,16.27,3.64l3.12-4.31C97.41,5,86.24,7.16,85.59,7.15Z"/><path class="cls-19" d="M86.29,17.82S95.7,14.74,103,21.13l2.55-3.53s-6.64-12-19.92-10.45Z"/><path class="cls-4" d="M102.43,22.52l-.32-.35c-5.86-6.48-15.77-3.56-15.87-3.53l-.26.08-1.39-1.81-.85-8.84,1.73-1.31h.13l.24,0c4.61-.46,13.33.32,20,10.65l.14.22ZM86.27,17.83c1.63-.42,10.43-2.34,16.08,3.47L105,17.59C98.62,7.81,90.32,7.07,85.92,7.51l-.19,0-1.18.9.79,8.18Z"/><path class="cls-18" d="M62.79,13.51c-.66.36-15.73,8.71-20.73,22.53-.19.5-.37,1-.53,1.52l.54,1.83,5,1.58c6.78-13.56,20.36-17.46,20.5-17.54L67.36,22Z"/><path class="cls-19" d="M46.63,39.05c7.13-13.17,20.59-17,20.73-17.07l-4.57-8.47c-.68.37-16.74,9.46-21.28,24Z"/><path class="cls-4" d="M47.27,41.44,41.76,39.7l-.63-2.14,0-.12c.16-.5.34-1,.54-1.54C46.75,22,62,13.53,62.6,13.17l.34-.18,4.79,8.86L68,23.64l-.24.13-.18.07c-3.23,1.06-14.23,5.47-20.16,17.3Zm-4.89-2.35,4.5,1.41c6-11.65,16.76-16.14,20.27-17.33L67,22.1,62.63,14C60.28,15.39,47,23.46,42.42,36.17c-.18.49-.34.94-.48,1.39Z"/><path class="cls-9" d="M116,94.79c1.74,3.51,0,7.34-9.2,10.84-29.55,11.19-65.71-8.34-65.71-8.34s0-10.93-7.6-10.92-7.7,10-7.71,13.34c0,6.08,2.16,13.84,2.16,13.84s27.9,22.46,58.5,21.34a55.46,55.46,0,0,0,14.43-2.57c5.4-1.7,10.75-4.32,14.75-8.55,5.8-5.71,7.39-12.23,8.19-21.62a14.51,14.51,0,0,0-2.54-9.42"/><path class="cls-10" d="M106.84,105.63a51.28,51.28,0,0,1-8.4,2.37l-.22,25.09c.91-.24,1.8-.49,2.69-.77a36.43,36.43,0,0,0,12.71-6.64l.2-23.73A26,26,0,0,1,106.84,105.63Z"/><path class="cls-20" d="M33.53,86.37a5.8,5.8,0,0,0-4.19,2c1.76-1.66,3.75-1.43,4.86-.17,2.62,3,2,10.48,2,10.48l4.88-1.4S41.15,86.36,33.53,86.37Z"/><path class="cls-6" d="M120.85,92.91l-.17-.32-4.59,1.86,0,.34c1.74,3.51,0,7.34-9.2,10.84-29.55,11.19-65.71-8.34-65.71-8.34l-4.88,1.4c6,3,14.62,8.66,33.45,13.65s44.85.36,50.7-9.62A9.78,9.78,0,0,0,120.85,92.91Z"/><path class="cls-8" d="M115.89,94.52l.15.27c1.74,3.51,0,7.34-9.2,10.84-29.55,11.19-65.71-8.34-65.71-8.34s0-10.93-7.6-10.92-7.7,10-7.71,13.34c0,6.08,2.16,13.84,2.16,13.84s27.9,22.46,58.5,21.34a55.46,55.46,0,0,0,14.43-2.57c5.4-1.7,10.75-4.32,14.75-8.55,5.8-5.71,7.39-12.23,8.19-21.62a15,15,0,0,0-2.64-9.57l-.33-.46"/><g class="cls-21"><path class="cls-4" d="M24.64,103.1c-2,0-3.93-1.42-5.09-3.7a5.57,5.57,0,0,1-1.21-2.55,5.88,5.88,0,0,1,.2-2.84c.3-2.94,1.93-5.11,4.18-5.53l1.05-.27a3,3,0,0,1,.53-.14,4.09,4.09,0,0,1,.6-.07h.16a3.24,3.24,0,0,1,.44,0,3.91,3.91,0,0,1,.58.1,5.13,5.13,0,0,1,1.11.41,4.74,4.74,0,0,1,.52.31,6.52,6.52,0,0,1,.94.76l0,0a3.06,3.06,0,0,1,2.12-1.12H31c2,0,3.68,2.14,3.86,5a6.63,6.63,0,0,1-.73,3.58A3.35,3.35,0,0,1,31.46,99H31.3a3,3,0,0,1-.52,0v0c-.06.16-.12.32-.19.48s-.19.41-.27.57-.22.37-.32.53-.24.33-.36.48a4.61,4.61,0,0,1-2.37,1.53h0l-1.64.43v0l-.21,0A4.9,4.9,0,0,1,24.64,103.1Z"/><ellipse class="cls-22" cx="31.14" cy="93.74" rx="2.69" ry="4.2" transform="translate(-5.8 2.13) rotate(-3.59)"/><ellipse class="cls-6" cx="25.64" cy="95.34" rx="4.47" ry="6.37" transform="translate(-16.9 6.25) rotate(-10.47)"/><ellipse class="cls-9" cx="24.06" cy="95.76" rx="4.47" ry="6.37" transform="translate(-17 5.97) rotate(-10.47)"/><ellipse class="cls-23" cx="23.28" cy="95.91" rx="3.57" ry="5.08" transform="translate(-17.04 5.83) rotate(-10.47)"/><path class="cls-24" d="M26.28,95.29c.46,2.47-.58,4.74-2.32,5.07s-4.16-1.22-4.62-3.7,1.22-5,3-5.28S25.82,92.81,26.28,95.29Z"/><path class="cls-23" d="M22.44,96.23l-.12-.49-1.49.4a5.08,5.08,0,0,1,0-1.35l-.51-.06a5.74,5.74,0,0,0,0,1.55l-.89.24.11.42.86-.21a5.91,5.91,0,0,0,.46,1.3l.46-.24a4.88,4.88,0,0,1-.42-1.18Z"/><path class="cls-22" d="M30.94,97.89l-.19,0Z"/><polygon class="cls-22" points="30.87 89.54 30.87 89.54 30.87 89.54 30.87 89.54"/><path class="cls-22" d="M29.55,90.22a3.8,3.8,0,0,1,.37-.33A3.8,3.8,0,0,0,29.55,90.22Z"/><path class="cls-22" d="M30.06,89.82a1.87,1.87,0,0,1,.31-.17A1.87,1.87,0,0,0,30.06,89.82Z"/><path class="cls-22" d="M30.54,97.75a2.41,2.41,0,0,1-.53-.32A2.41,2.41,0,0,0,30.54,97.75Z"/><path class="cls-22" d="M29.53,90.24a4.12,4.12,0,0,0-.35.45h0A5.37,5.37,0,0,1,29.53,90.24Z"/><path class="cls-22" d="M33.22,91.25a5.48,5.48,0,0,1,.49,1.48A5.48,5.48,0,0,0,33.22,91.25Z"/><path class="cls-4" d="M33.71,92.73a5.48,5.48,0,0,0-.49-1.48,4.39,4.39,0,0,0-.8-1.09,2.13,2.13,0,0,0-1.55-.62h0a1.72,1.72,0,0,0-.5.11,1.87,1.87,0,0,0-.31.17l-.14.07a3.8,3.8,0,0,0-.37.33l0,0a5.37,5.37,0,0,0-.35.45h0a5.45,5.45,0,0,0-.73,3.21A5,5,0,0,0,30,97.43a2.41,2.41,0,0,0,.53.32l.21.09.19,0a1.75,1.75,0,0,0,.46,0,2.1,2.1,0,0,0,1.46-.81,4.82,4.82,0,0,0,1-2.7,6,6,0,0,0,0-.85A5.67,5.67,0,0,0,33.71,92.73Z"/><path class="cls-25" d="M33.45,95.55a1.25,1.25,0,0,0,.31-.68,6.17,6.17,0,0,0,.06-1.3,6.24,6.24,0,0,0-.47-2l-.08-.14c-.2-.27-.68-.65-1.74-.38l-10,2.7,1.33,4.93,9.7-2.61A1.82,1.82,0,0,0,33.45,95.55Z"/><path class="cls-6" d="M30,94.53c-.64-3.47-3.13-5.91-5.56-5.46a3.31,3.31,0,0,0-.45.12l-1.12.3.2.2c-1.57,1.16-2.38,3.72-1.87,6.46.56,3,2.52,5.26,4.63,5.49l-.51.35,1.64-.43h0C29.3,101,30.66,97.9,30,94.53Z"/><ellipse class="cls-9" cx="24.06" cy="95.76" rx="4.47" ry="6.37" transform="translate(-17 5.97) rotate(-10.47)"/><ellipse class="cls-23" cx="23.28" cy="95.91" rx="3.57" ry="5.08" transform="translate(-17.04 5.83) rotate(-10.47)"/><path class="cls-24" d="M26.28,95.29c.46,2.47-.58,4.74-2.32,5.07s-4.16-1.22-4.62-3.7,1.22-5,3-5.28S25.82,92.81,26.28,95.29Z"/><path class="cls-23" d="M22.44,96.23l-.12-.49-1.49.4a5.08,5.08,0,0,1,0-1.35l-.51-.06a5.74,5.74,0,0,0,0,1.55l-.89.24.11.42.86-.21a5.91,5.91,0,0,0,.46,1.3l.46-.24a4.88,4.88,0,0,1-.42-1.18Z"/></g></g></g></svg>